<svg width="50" height="60" viewBox="0 0 50 60" fill="none" xmlns="http://www.w3.org/2000/svg">
<path d="M48 0H2C0.895431 0 0 0.89543 0 2V58C0 59.1046 0.895431 60 2 60H48C49.1046 60 50 59.1046 50 58V2C50 0.89543 49.1046 0 48 0Z" fill="#FFC800"/>
<path d="M46.2504 2.34998H3.75039C3.00481 2.34998 2.40039 2.95439 2.40039 3.69998V56.3C2.40039 57.0456 3.00481 57.65 3.75039 57.65H46.2504C46.996 57.65 47.6004 57.0456 47.6004 56.3V3.69998C47.6004 2.95439 46.996 2.34998 46.2504 2.34998Z" fill="#FF7800"/>
<path d="M44.8199 4.07007H5.16992C4.61764 4.07007 4.16992 4.51778 4.16992 5.07007V54.9201C4.16992 55.4724 4.61764 55.9201 5.16992 55.9201H44.8199C45.3722 55.9201 45.8199 55.4724 45.8199 54.9201V5.07007C45.8199 4.51778 45.3722 4.07007 44.8199 4.07007Z" fill="#D70000"/>
<path d="M43.6496 5.44995H6.34961C5.9354 5.44995 5.59961 5.78574 5.59961 6.19995V53.7999C5.59961 54.2142 5.9354 54.5499 6.34961 54.5499H43.6496C44.0638 54.5499 44.3996 54.2142 44.3996 53.7999V6.19995C44.3996 5.78574 44.0638 5.44995 43.6496 5.44995Z" fill="#00005F"/>
<path d="M24.8096 50.84C23.3896 50.84 23.1396 50.21 23.1396 48.79V46.51H24.2896V49.1C24.2896 49.76 24.3696 50.06 24.8296 50.06C25.2896 50.06 25.3696 49.81 25.3696 49.1V46.51H26.5096V48.79C26.5096 50.36 26.1096 50.84 24.8096 50.84Z" fill="white"/>
<path d="M25.6301 46.0399C25.3201 46.0399 25.0801 45.8099 25.0801 45.5199C25.0801 45.2299 25.3201 44.9299 25.6301 44.9299C25.9401 44.9299 26.1801 45.2299 26.1801 45.5199C26.1801 45.8099 25.9401 46.0399 25.6301 46.0399Z" fill="white"/>
<path d="M24.0405 46.0399C23.7305 46.0399 23.4805 45.8099 23.4805 45.5199C23.4805 45.2299 23.7305 44.9299 24.0405 44.9299C24.3505 44.9299 24.5805 45.2199 24.5805 45.5199C24.5805 45.8199 24.3505 46.0399 24.0405 46.0399Z" fill="white"/>
<path d="M27.3398 50.76V46.51H28.5598C30.0598 46.51 30.7698 46.83 30.7698 48.63C30.7698 50.43 30.0898 50.76 28.5598 50.76H27.3398ZM28.7398 50.02C29.3698 50.02 29.6198 49.63 29.6198 48.63C29.6198 47.63 29.3698 47.24 28.7398 47.24H28.4898V50.01H28.7398V50.02Z" fill="white"/>
<path d="M20.8199 50.8399C20.1299 50.8399 19.6499 50.7099 19.4199 50.6299L19.5699 49.8699C20.0199 50.0099 20.3099 50.0699 20.5399 50.0699C20.8399 50.0699 21.1999 49.9899 21.1999 49.6199C21.1999 49.3799 20.9099 49.1999 20.5699 48.9999L20.5399 48.9799C20.0399 48.6799 19.4799 48.3399 19.4799 47.6799C19.4799 46.8799 20.0499 46.4399 21.0899 46.4399C21.6199 46.4399 21.9599 46.5099 22.3499 46.6099L22.1999 47.3599C22.0599 47.3099 21.7099 47.1999 21.2999 47.1999C20.9299 47.1999 20.7099 47.3499 20.7099 47.5999C20.7099 47.8499 21.0199 48.0199 21.3799 48.2199L21.4099 48.2399C21.9199 48.5299 22.5099 48.8599 22.5099 49.5299C22.5099 50.3999 21.9399 50.8399 20.8299 50.8399H20.8199Z" fill="white"/>
<path d="M15.9202 43.96C15.8102 43.48 15.5902 42.62 15.4802 42.26H12.1602C12.0502 42.62 11.8402 43.47 11.7202 43.96H8.74023C10.0002 39.97 10.5802 38.29 11.9902 34.75H15.6402C17.0502 38.29 17.6302 39.97 18.8902 43.96H15.9102H15.9202ZM12.5802 40.28H15.0602C14.7102 39.05 14.0502 37 13.8202 36.41C13.5902 36.99 12.9302 39.04 12.5802 40.28Z" fill="white"/>
<path d="M22.1695 43.96C20.6195 43.96 19.7695 43.08 19.7695 41.48V34.76H22.5595V40.95C22.5595 41.72 22.7695 41.92 23.5895 41.92H26.2895L26.6995 43.96H22.1595H22.1695Z" fill="white"/>
<path d="M40.7497 34.75H37.9697V43.96H40.7497V34.75Z" fill="white"/>
<path d="M27.8105 43.96V34.75H31.6605C34.4905 34.75 36.4705 35.9 36.4705 39.28C36.4705 42.66 34.8905 43.96 31.7805 43.96H27.8105ZM30.6005 41.97H31.3905C33.1005 41.97 33.7805 41.21 33.7805 39.28C33.7805 37.47 32.9505 36.74 31.3005 36.74H30.6105V41.97H30.6005Z" fill="white"/>
<path d="M23.9298 8.78003C22.1998 8.78003 21.5098 9.97003 20.8598 11.87L14.9798 29.19C14.4798 30.68 13.8398 31.58 12.7598 31.71V31.81C13.2598 31.81 15.7098 31.81 15.8098 31.81C17.5398 31.81 18.2298 30.62 18.8798 28.72L24.7598 11.4C25.2598 9.91003 25.9598 9.01003 27.0398 8.88003V8.79003H23.9298V8.78003Z" fill="url(#paint0_linear_386_6851)"/>
<path d="M29.46 8.75C27.73 8.75 27.04 9.94 26.39 11.84L20.51 29.14C20.01 30.63 19.37 31.53 18.29 31.66V31.75C18.79 31.75 21.24 31.75 21.34 31.75C23.07 31.75 23.76 30.56 24.41 28.66L30.29 11.36C30.79 9.87 31.49 8.97 32.57 8.84V8.75C32.07 8.75 29.56 8.75 29.46 8.75Z" fill="url(#paint1_linear_386_6851)"/>
<path d="M18.3998 8.82007C16.6698 8.82007 15.9798 10.0101 15.3298 11.9101L8.5498 31.8601C9.0498 31.8601 10.1798 31.8601 10.2798 31.8601C12.0098 31.8601 12.6998 30.6701 13.3498 28.7701L19.2398 11.4401C19.7398 9.95007 20.4398 9.05007 21.5198 8.92007V8.82007H18.4098H18.3998Z" fill="url(#paint2_linear_386_6851)"/>
<path d="M35.9802 16.84C35.3402 15.53 34.6502 15.37 33.4402 15.37H30.3702L29.1602 18.94H35.1802C36.0502 18.94 36.7502 19.05 37.2302 19.7H37.3402C37.3402 19.7 36.1302 17.16 35.9802 16.84Z" fill="url(#paint3_linear_386_6851)"/>
<path d="M38.1699 21.99C37.5699 20.73 36.8399 20.52 35.6299 20.52H28.6299L27.4199 24.09H37.3199C38.2099 24.09 38.8699 24.22 39.3699 24.87H39.4799C39.4799 24.87 38.3199 22.3 38.1699 21.99Z" fill="url(#paint4_linear_386_6851)"/>
<path d="M40.3997 27.32C39.7697 25.91 38.9896 25.7 37.7796 25.7H26.8596L25.8596 28.66C25.7896 28.87 25.7096 29.08 25.6396 29.27H39.4596C40.2696 29.27 40.9296 29.41 41.4396 30.08H41.5497C41.5497 30.08 40.4797 27.48 40.3997 27.32Z" fill="url(#paint5_linear_386_6851)"/>
<defs>
<linearGradient id="paint0_linear_386_6851" x1="19.8998" y1="31.8" x2="19.8998" y2="8.78003" gradientUnits="userSpaceOnUse">
<stop stop-color="#1482AF"/>
<stop offset="0.02" stop-color="#3797BF"/>
<stop offset="0.05" stop-color="#6EB8D7"/>
<stop offset="0.08" stop-color="#95D0E9"/>
<stop offset="0.11" stop-color="#AEDFF4"/>
<stop offset="0.12" stop-color="#B7E5F9"/>
<stop offset="0.2" stop-color="#97D9F6"/>
<stop offset="0.33" stop-color="#67C9F1"/>
<stop offset="0.4" stop-color="#55C3F0"/>
<stop offset="0.6" stop-color="#55C3F0"/>
<stop offset="0.67" stop-color="#67C9F1"/>
<stop offset="0.8" stop-color="#97D9F6"/>
<stop offset="0.88" stop-color="#B7E5F9"/>
<stop offset="0.89" stop-color="#AEDFF4"/>
<stop offset="0.92" stop-color="#95D0E9"/>
<stop offset="0.95" stop-color="#6EB8D7"/>
<stop offset="0.98" stop-color="#3797BF"/>
<stop offset="1" stop-color="#1482AF"/>
</linearGradient>
<linearGradient id="paint1_linear_386_6851" x1="25.43" y1="31.75" x2="25.43" y2="8.75" gradientUnits="userSpaceOnUse">
<stop stop-color="#1482AF"/>
<stop offset="0.02" stop-color="#3797BF"/>
<stop offset="0.05" stop-color="#6EB8D7"/>
<stop offset="0.08" stop-color="#95D0E9"/>
<stop offset="0.11" stop-color="#AEDFF4"/>
<stop offset="0.12" stop-color="#B7E5F9"/>
<stop offset="0.2" stop-color="#97D9F6"/>
<stop offset="0.33" stop-color="#67C9F1"/>
<stop offset="0.4" stop-color="#55C3F0"/>
<stop offset="0.6" stop-color="#55C3F0"/>
<stop offset="0.67" stop-color="#67C9F1"/>
<stop offset="0.8" stop-color="#97D9F6"/>
<stop offset="0.88" stop-color="#B7E5F9"/>
<stop offset="0.89" stop-color="#AEDFF4"/>
<stop offset="0.92" stop-color="#95D0E9"/>
<stop offset="0.95" stop-color="#6EB8D7"/>
<stop offset="0.98" stop-color="#3797BF"/>
<stop offset="1" stop-color="#1482AF"/>
</linearGradient>
<linearGradient id="paint2_linear_386_6851" x1="15.0298" y1="31.8501" x2="15.0298" y2="8.82007" gradientUnits="userSpaceOnUse">
<stop stop-color="#1482AF"/>
<stop offset="0.02" stop-color="#3797BF"/>
<stop offset="0.05" stop-color="#6EB8D7"/>
<stop offset="0.08" stop-color="#95D0E9"/>
<stop offset="0.11" stop-color="#AEDFF4"/>
<stop offset="0.12" stop-color="#B7E5F9"/>
<stop offset="0.2" stop-color="#97D9F6"/>
<stop offset="0.33" stop-color="#67C9F1"/>
<stop offset="0.4" stop-color="#55C3F0"/>
<stop offset="0.6" stop-color="#55C3F0"/>
<stop offset="0.67" stop-color="#67C9F1"/>
<stop offset="0.8" stop-color="#97D9F6"/>
<stop offset="0.88" stop-color="#B7E5F9"/>
<stop offset="0.89" stop-color="#AEDFF4"/>
<stop offset="0.92" stop-color="#95D0E9"/>
<stop offset="0.95" stop-color="#6EB8D7"/>
<stop offset="0.98" stop-color="#3797BF"/>
<stop offset="1" stop-color="#1482AF"/>
</linearGradient>
<linearGradient id="paint3_linear_386_6851" x1="29.3602" y1="19.4" x2="36.0702" y2="16.62" gradientUnits="userSpaceOnUse">
<stop offset="0.2" stop-color="#55C3F0"/>
<stop offset="0.32" stop-color="#67C9F1"/>
<stop offset="0.55" stop-color="#97D9F6"/>
<stop offset="0.69" stop-color="#B7E5F9"/>
<stop offset="0.73" stop-color="#AEDFF4"/>
<stop offset="0.79" stop-color="#95D0E9"/>
<stop offset="0.86" stop-color="#6EB8D7"/>
<stop offset="0.95" stop-color="#3797BF"/>
<stop offset="1" stop-color="#1482AF"/>
</linearGradient>
<linearGradient id="paint4_linear_386_6851" x1="27.8899" y1="25.25" x2="37.9099" y2="21.1" gradientUnits="userSpaceOnUse">
<stop offset="0.3" stop-color="#55C3F0"/>
<stop offset="0.41" stop-color="#67C9F1"/>
<stop offset="0.63" stop-color="#97D9F6"/>
<stop offset="0.76" stop-color="#B7E5F9"/>
<stop offset="0.79" stop-color="#AEDFF4"/>
<stop offset="0.83" stop-color="#95D0E9"/>
<stop offset="0.89" stop-color="#6EB8D7"/>
<stop offset="0.96" stop-color="#3797BF"/>
<stop offset="1" stop-color="#1482AF"/>
</linearGradient>
<linearGradient id="paint5_linear_386_6851" x1="26.4096" y1="31.13" x2="39.6996" y2="25.62" gradientUnits="userSpaceOnUse">
<stop stop-color="#73CDF3"/>
<stop offset="0.12" stop-color="#62C7F1"/>
<stop offset="0.24" stop-color="#58C4F0"/>
<stop offset="0.4" stop-color="#55C3F0"/>
<stop offset="0.5" stop-color="#67C9F1"/>
<stop offset="0.69" stop-color="#97D9F6"/>
<stop offset="0.81" stop-color="#B7E5F9"/>
<stop offset="0.83" stop-color="#AEDFF4"/>
<stop offset="0.87" stop-color="#95D0E9"/>
<stop offset="0.92" stop-color="#6EB8D7"/>
<stop offset="0.97" stop-color="#3797BF"/>
<stop offset="1" stop-color="#1482AF"/>
</linearGradient>
</defs>
</svg>
