<?xml version="1.0" encoding="UTF-8"?>
<svg id="Ebene_1" xmlns="http://www.w3.org/2000/svg" xmlns:svg="http://www.w3.org/2000/svg" xmlns:sodipodi="http://sodipodi.sourceforge.net/DTD/sodipodi-0.dtd" xmlns:rdf="http://www.w3.org/1999/02/22-rdf-syntax-ns#" xmlns:inkscape="http://www.inkscape.org/namespaces/inkscape" xmlns:dc="http://purl.org/dc/elements/1.1/" xmlns:cc="http://creativecommons.org/ns#" version="1.1" viewBox="0 0 1000 822.44">
  <!-- Generator: Adobe Illustrator 30.3.0, SVG Export Plug-In . SVG Version: 2.1.3 Build 182)  -->
  <defs>
    <style>
      .st0 {
        fill: #fff;
      }
    </style>
  </defs>
  <g id="svg2985" inkscape:version="0.48.5 r10040" sodipodi:docname="energy-perspectives-2018.pdf">
    <g>
      <path id="path3029" class="st0" d="M766.18,596.04c-.85-2.14-2.68-2.93-4.72-1.72-2.04,1.22-40.31,24.02-40.31,24.02v-21.01c0-2.36-1.5-3.22-3.64-2.36l-12.43,4.5c-1.71.65-2.36,1.93-2.36,3.65v92.38c0,1.93,1.29,3.21,3.22,3.21h12c1.93,0,3.22-1.28,3.22-3.21v-56.59s45.12-27.85,46.95-28.93c1.83-1.1,2.77-2.02,1.93-4.07-.91-2.25-3.85-9.85-3.85-9.85" inkscape:connector-curvature="0"/>
      <path id="path3033" class="st0" d="M101.58,635.03c4.07-14.79,15.65-23.79,31.93-23.79,17.79,0,27.23,10.5,28.09,23.79,0,0-60.02,0-60.02,0ZM181.11,640.61c0-25.73-17.58-47.38-46.95-47.38s-52.95,20.8-52.95,54.66c0,30.87,20.15,53.38,54.02,53.38,15.44,0,30.86-5.36,42.45-15.65,1.51-1.28,1.51-3,.44-4.5l-5.8-9.01c-1.07-1.72-2.78-1.93-4.5-.65-10.5,7.72-21.22,11.58-32.59,11.58-21.65,0-33.44-14.15-34.95-31.94h77.65c1.98,0,3.17-1.44,3.17-3.17v-7.33h0Z" inkscape:connector-curvature="0"/>
      <path id="path3037" class="st0" d="M248.74,683.05c-18.22,0-33.88-12.43-33.88-36.02s15.65-35.8,33.88-35.8,33.88,12.21,33.88,35.8-14.79,36.02-33.88,36.02M285.61,741.57h12c1.93,0,3.22-1.28,3.22-3.22v-141.05c0-2.36-1.5-3.21-3.85-2.36l-12.22,4.51c-1.72.65-2.36,1.93-2.36,3.65v4.5c-6.64-9.01-19.73-14.37-33.88-14.37-28.08,0-52.52,21.01-52.52,54.02,0,29.15,18.87,54.02,51.44,54.02,14.79,0,28.94-6.64,34.95-14.15v51.23c0,1.93,1.29,3.22,3.22,3.22" inkscape:connector-curvature="0"/>
      <path id="path3041" class="st0" d="M361.9,701.27c11.15,0,23.36-3.64,31.3-15.22v9.43c0,1.93,1.29,3.22,3.22,3.22h12c1.93,0,3.22-1.29,3.22-3.22v-97.97c0-2.57-1.5-3.43-3.65-2.57l-12.43,4.5c-1.71.65-2.36,1.93-2.36,3.65v51.44c0,18.22-11.79,28.52-27.86,28.52s-26.58-10.08-26.58-28.52v-57.24c0-2.35-1.51-3.21-3.64-2.35l-12.43,4.5c-1.72.65-2.36,1.93-2.36,3.65v52.09c0,30.45,18.44,46.09,41.58,46.09" inkscape:connector-curvature="0"/>
      <path id="path3045" class="st0" d="M436.72,584l13.08-4.29c2.14-.64,3-1.71,3-3.85v-15.65c0-1.93-1.51-3.43-3.85-2.58l-12.87,4.72c-1.92.64-2.99,1.5-2.99,3.64v15.01c0,2.35,1.28,3.85,3.64,3" inkscape:connector-curvature="0"/>
      <path id="path3049" class="st0" d="M436.93,698.69h12c1.93,0,3.22-1.29,3.22-3.22v-98.18c0-2.36-1.51-3.22-3.64-2.36l-12.43,4.51c-1.72.64-2.36,1.93-2.36,3.64v92.39c0,1.93,1.29,3.22,3.22,3.22" inkscape:connector-curvature="0"/>
      <path id="path3053" class="st0" d="M477.44,698.69h12c1.93,0,3.22-1.29,3.22-3.22v-55.52c0-18.22,11.79-28.52,27.87-28.52s26.57,10.08,26.57,28.52v55.52c0,1.93,1.29,3.22,3.22,3.22h12.01c1.93,0,3.22-1.29,3.22-3.22v-56.16c0-30.44-18.45-46.09-41.59-46.09-11.15,0-23.36,3.64-31.3,15.22v-11.15c0-2.36-1.5-3.22-3.64-2.36l-12.43,4.51c-1.71.64-2.36,1.93-2.36,3.64v92.39c0,1.93,1.29,3.22,3.22,3.22" inkscape:connector-curvature="0"/>
      <path id="path3057" class="st0" d="M634.25,683.26c-21.22,0-34.08-15.86-34.08-36.01s12.86-36.02,34.08-36.02,33.88,15.86,33.88,36.02-12.86,36.01-33.88,36.01M634.25,593.23c-30.87,0-52.95,22.94-52.95,54.02s22.08,54.02,52.95,54.02,52.73-22.94,52.73-54.02-21.86-54.02-52.73-54.02" inkscape:connector-curvature="0"/>
      <path id="path3061" class="st0" d="M582.04,165.22v109.54c0,3.24,1.63,6.25,4.43,7.86l94.92,54.69c4.02,2.32,9.17-.59,9.17-5.23v-109.54c0-3.24-1.73-6.25-4.55-7.86l-94.92-54.69c-4.02-2.32-9.05.58-9.06,5.23M874.39,79.68l-136.65,78.73c-4.06,2.33-6.54,6.65-6.54,11.32v157.7c.02,6.69,7.4,10.87,13.2,7.53l136.65-78.73c4.05-2.33,6.39-6.65,6.39-11.32V87.21c0-6.69-7.24-10.87-13.04-7.53M686.93,415.1l-37.98,21.87c-1.13.65-1.81,1.85-1.81,3.15v43.83c0,1.86,2.06,3.02,3.67,2.09l37.97-21.87c1.13-.65,1.78-1.85,1.78-3.15v-43.83c0-1.86-2.02-3.02-3.63-2.09M664.8,374.66l-56.88-32.91c-1.69-.97-3.76-.97-5.45,0l-56.87,32.91c-2.41,1.39-2.41,4.88,0,6.28l56.87,32.9c1.69.98,3.76.98,5.45,0l56.88-32.9c2.41-1.4,2.41-4.89,0-6.28M756.36,380.59l25.27,14.62c1.5.87,3.35.87,4.85,0l25.27-14.62c2.14-1.24,2.14-4.34,0-5.58l-25.27-14.62c-1.5-.87-3.35-.87-4.85,0l-25.27,14.62c-2.14,1.24-2.14,4.34,0,5.58M736.03,415.78l25.3,14.58c1.5.85,2.42,2.46,2.42,4.18l-.02,29.19c0,2.48-2.68,4.02-4.84,2.79l-25.3-14.58c-1.5-.86-2.39-2.47-2.39-4.19v-29.19c0-2.48,2.68-4.02,4.83-2.78" inkscape:connector-curvature="0"/>
    </g>
  </g>
</svg>