<?xml version="1.0" encoding="UTF-8"?>
<svg id="Ebene_1" xmlns="http://www.w3.org/2000/svg" version="1.1" viewBox="0 0 56 44">
  <!-- Generator: Adobe Illustrator 30.3.0, SVG Export Plug-In . SVG Version: 2.1.3 Build 182)  -->
  <defs>
    <style>
      .st0 {
        fill: #fff;
      }
    </style>
  </defs>
  <path class="st0" d="M-156.24,79.8c-.4,0-.78.17-1.06.45-.28.28-.43.66-.43,1.06h0c.02.81.7,1.46,1.52,1.45.82,0,1.48-.68,1.48-1.5-.01-.82-.68-1.47-1.5-1.47Z"/>
  <path class="st0" d="M-141.98,63h-48.05c-2.18,0-3.95,1.75-3.95,3.91v22.45c0,2.16,1.77,3.91,3.95,3.91h13.69c-1.34,4.37.28,9.1,4.03,11.76,3.75,2.66,8.8,2.66,12.55,0,3.75-2.66,5.38-7.39,4.04-11.76h13.73c2.18,0,3.95-1.75,3.95-3.91v-22.45c0-2.16-1.77-3.91-3.95-3.91ZM-155.96,73.06s0,0,0,0c0-.7.58-1.26,1.27-1.26.7,0,1.27.56,1.27,1.26,0,.7-.56,1.26-1.26,1.27-.34,0-.67-.13-.91-.37-.24-.24-.37-.56-.37-.89,0,0,0,0,0,0h0ZM-157.89,71.83c.7,0,1.27.56,1.27,1.26,0,.7-.56,1.26-1.26,1.27-.34,0-.67-.13-.91-.37-.24-.24-.37-.56-.38-.9,0-.7.58-1.26,1.28-1.25ZM-183.49,85.2c-1.7,0-2.59-.73-3.12-.72-.33.02-.61.23-.74.53h-.48l-.03-5.03h.5s.79,3.41,3.48,3.39c1.36,0,2.13-.88,2.12-2.23-.02-3.06-6.23-2.91-6.25-7.75,0-1.99,1.37-3.66,4.11-3.68,1.58,0,2.28.71,2.84.71.31.02.58-.2.62-.51h.49l.04,4.66h-.53s-.45-3.13-2.96-3.09c-.42-.03-.82.13-1.12.42-.3.29-.45.69-.43,1.1.02,2.83,6.33,2.76,6.36,7.74.02,2.83-2.05,4.43-4.89,4.46ZM-173.92,85.12h0c-2.74.01-4.22-2.23-4.22-5.01-.03-2.91,1.62-5.05,4.07-5.05,1.38,0,2.07.61,2.41.6.34,0,.33-.4.33-.4h.45l.02,3.45h-.44s-.14-2.03-1.7-2.02c-1.27,0-1.98,1.14-1.98,3.41s.72,3.64,2.11,3.63c.74-.02,1.42-.39,1.84-1l.41.2c-.19.63-1.08,2.19-3.29,2.2ZM-160.73,84.8l-4.61.03v-.42s.75-.08.74-1.52l-.04-4.64c0-.76-.36-1.24-1.04-1.24s-1.09.49-1.09,1.26l.03,4.64c0,1.44.76,1.5.76,1.5v.41l-4.61.03v-.41s.75-.08.74-1.52l-.07-9.41c0-1.6-.75-1.72-.75-1.72v-.41c1.49-.31,2.79-.98,3.39-1.57h.46l.05,6.3c.58-.72,1.45-1.14,2.38-1.13,1.87,0,2.86,1.11,2.87,2.84l.03,5.04c0,1.44.76,1.51.76,1.51v.41ZM-144.82,77.52c-.53.01-1.03-.25-1.32-.69-.8.62-1.25,1.58-1.22,2.59l.02,3.35c0,1.44.76,1.5.76,1.5v.42l-4.05.03c.7,1.75,1.89,2.77,3.36,2.82.68.04,1.36-.13,1.94-.49l.25.32c-.89,1.02-2.15,1.62-3.5,1.66-2.87.02-4.57-1.73-5.39-4.5l-.35-1.2c-.64,1.03-1.77,1.66-2.98,1.66-1.91.03-3.49-1.48-3.52-3.37h-.01c0-1.91,1.56-3.44,3.48-3.43.57,0,1.14.13,1.65.38l-.14-.47c-.2-.78-.92-1.33-1.73-1.32-.77.03-1.49.38-1.98.98l-.35-.2c.54-1.55,1.98-2.6,3.62-2.65,2,0,3.02,1.09,3.47,2.61l1.93,6.5.03.09c.2-.19.4-.57.39-1.32l-.03-4.23c0-1.6-.76-1.72-.76-1.72v-.39c1.48-.33,2.79-.98,3.39-1.57h.46v1.57c.55-.92,1.5-1.76,2.45-1.77.75-.09,1.43.45,1.51,1.2,0,.05,0,.1,0,.16,0,.83-.5,1.49-1.38,1.49Z"/>
</svg>